<mxfile host="app.diagrams.net" modified="2021-07-16T18:33:51.748Z" agent="5.0 (Windows NT 10.0; Win64; x64) AppleWebKit/537.36 (KHTML, like Gecko) Chrome/91.0.4472.164 Safari/537.36" etag="6bryCs-s3XDtX1_qTxzv" version="14.6.10" type="github">
  <diagram id="acvf0RufCCxVsv5_PF9g" name="Page-1">
    <mxGraphModel dx="782" dy="468" grid="1" gridSize="10" guides="1" tooltips="1" connect="1" arrows="1" fold="1" page="1" pageScale="1" pageWidth="827" pageHeight="1169" math="0" shadow="0">
      <root>
        <mxCell id="0" />
        <mxCell id="1" parent="0" />
        <mxCell id="kXSDyCHVliUlZymCafyJ-69" style="edgeStyle=orthogonalEdgeStyle;rounded=0;orthogonalLoop=1;jettySize=auto;html=1;exitX=1;exitY=0.5;exitDx=0;exitDy=0;entryX=0;entryY=0.5;entryDx=0;entryDy=0;" edge="1" parent="1" source="kXSDyCHVliUlZymCafyJ-2" target="kXSDyCHVliUlZymCafyJ-64">
          <mxGeometry relative="1" as="geometry" />
        </mxCell>
        <mxCell id="kXSDyCHVliUlZymCafyJ-70" style="edgeStyle=orthogonalEdgeStyle;rounded=0;orthogonalLoop=1;jettySize=auto;html=1;exitX=1;exitY=0.5;exitDx=0;exitDy=0;entryX=0;entryY=0.5;entryDx=0;entryDy=0;" edge="1" parent="1" source="kXSDyCHVliUlZymCafyJ-2" target="kXSDyCHVliUlZymCafyJ-65">
          <mxGeometry relative="1" as="geometry" />
        </mxCell>
        <mxCell id="kXSDyCHVliUlZymCafyJ-71" style="edgeStyle=orthogonalEdgeStyle;rounded=0;orthogonalLoop=1;jettySize=auto;html=1;exitX=1;exitY=0.5;exitDx=0;exitDy=0;entryX=0;entryY=0.5;entryDx=0;entryDy=0;" edge="1" parent="1" source="kXSDyCHVliUlZymCafyJ-2" target="kXSDyCHVliUlZymCafyJ-66">
          <mxGeometry relative="1" as="geometry" />
        </mxCell>
        <mxCell id="kXSDyCHVliUlZymCafyJ-72" style="edgeStyle=orthogonalEdgeStyle;rounded=0;orthogonalLoop=1;jettySize=auto;html=1;exitX=1;exitY=0.5;exitDx=0;exitDy=0;entryX=0;entryY=0.5;entryDx=0;entryDy=0;" edge="1" parent="1" source="kXSDyCHVliUlZymCafyJ-2" target="kXSDyCHVliUlZymCafyJ-4">
          <mxGeometry relative="1" as="geometry" />
        </mxCell>
        <mxCell id="kXSDyCHVliUlZymCafyJ-73" style="edgeStyle=orthogonalEdgeStyle;rounded=0;orthogonalLoop=1;jettySize=auto;html=1;exitX=1;exitY=0.5;exitDx=0;exitDy=0;entryX=0;entryY=0.5;entryDx=0;entryDy=0;" edge="1" parent="1" source="kXSDyCHVliUlZymCafyJ-2" target="kXSDyCHVliUlZymCafyJ-5">
          <mxGeometry relative="1" as="geometry" />
        </mxCell>
        <mxCell id="kXSDyCHVliUlZymCafyJ-74" style="edgeStyle=orthogonalEdgeStyle;rounded=0;orthogonalLoop=1;jettySize=auto;html=1;exitX=1;exitY=0.5;exitDx=0;exitDy=0;entryX=0;entryY=0.5;entryDx=0;entryDy=0;" edge="1" parent="1" source="kXSDyCHVliUlZymCafyJ-2" target="kXSDyCHVliUlZymCafyJ-6">
          <mxGeometry relative="1" as="geometry" />
        </mxCell>
        <mxCell id="kXSDyCHVliUlZymCafyJ-75" style="edgeStyle=orthogonalEdgeStyle;rounded=0;orthogonalLoop=1;jettySize=auto;html=1;exitX=1;exitY=0.5;exitDx=0;exitDy=0;entryX=0;entryY=0.5;entryDx=0;entryDy=0;" edge="1" parent="1" source="kXSDyCHVliUlZymCafyJ-2" target="kXSDyCHVliUlZymCafyJ-7">
          <mxGeometry relative="1" as="geometry" />
        </mxCell>
        <mxCell id="kXSDyCHVliUlZymCafyJ-76" style="edgeStyle=orthogonalEdgeStyle;rounded=0;orthogonalLoop=1;jettySize=auto;html=1;exitX=1;exitY=0.5;exitDx=0;exitDy=0;entryX=0;entryY=0.5;entryDx=0;entryDy=0;" edge="1" parent="1" source="kXSDyCHVliUlZymCafyJ-2" target="kXSDyCHVliUlZymCafyJ-8">
          <mxGeometry relative="1" as="geometry" />
        </mxCell>
        <mxCell id="kXSDyCHVliUlZymCafyJ-77" style="edgeStyle=orthogonalEdgeStyle;rounded=0;orthogonalLoop=1;jettySize=auto;html=1;exitX=1;exitY=0.5;exitDx=0;exitDy=0;entryX=0;entryY=0.5;entryDx=0;entryDy=0;" edge="1" parent="1" source="kXSDyCHVliUlZymCafyJ-2" target="kXSDyCHVliUlZymCafyJ-58">
          <mxGeometry relative="1" as="geometry" />
        </mxCell>
        <mxCell id="kXSDyCHVliUlZymCafyJ-2" value="HOME" style="rounded=1;arcSize=10;whiteSpace=wrap;html=1;align=center;fillColor=#f5f5f5;strokeColor=#666666;fontColor=#333333;" vertex="1" parent="1">
          <mxGeometry x="10" y="240" width="100" height="40" as="geometry" />
        </mxCell>
        <mxCell id="kXSDyCHVliUlZymCafyJ-4" value="DESPRE NOI" style="rounded=1;arcSize=10;whiteSpace=wrap;html=1;align=center;fillColor=#f5f5f5;strokeColor=#666666;fontColor=#333333;" vertex="1" parent="1">
          <mxGeometry x="179" y="190" width="100" height="40" as="geometry" />
        </mxCell>
        <mxCell id="kXSDyCHVliUlZymCafyJ-45" style="edgeStyle=orthogonalEdgeStyle;rounded=0;orthogonalLoop=1;jettySize=auto;html=1;exitX=1;exitY=0.5;exitDx=0;exitDy=0;entryX=0;entryY=0.5;entryDx=0;entryDy=0;" edge="1" parent="1" source="kXSDyCHVliUlZymCafyJ-5" target="kXSDyCHVliUlZymCafyJ-9">
          <mxGeometry relative="1" as="geometry" />
        </mxCell>
        <mxCell id="kXSDyCHVliUlZymCafyJ-46" style="edgeStyle=orthogonalEdgeStyle;rounded=0;orthogonalLoop=1;jettySize=auto;html=1;exitX=1;exitY=0.5;exitDx=0;exitDy=0;entryX=0;entryY=0.5;entryDx=0;entryDy=0;" edge="1" parent="1" source="kXSDyCHVliUlZymCafyJ-5" target="kXSDyCHVliUlZymCafyJ-11">
          <mxGeometry relative="1" as="geometry" />
        </mxCell>
        <mxCell id="kXSDyCHVliUlZymCafyJ-47" style="edgeStyle=orthogonalEdgeStyle;rounded=0;orthogonalLoop=1;jettySize=auto;html=1;exitX=1;exitY=0.5;exitDx=0;exitDy=0;entryX=0;entryY=0.75;entryDx=0;entryDy=0;" edge="1" parent="1" source="kXSDyCHVliUlZymCafyJ-5" target="kXSDyCHVliUlZymCafyJ-13">
          <mxGeometry relative="1" as="geometry" />
        </mxCell>
        <mxCell id="kXSDyCHVliUlZymCafyJ-67" style="edgeStyle=orthogonalEdgeStyle;rounded=0;orthogonalLoop=1;jettySize=auto;html=1;exitX=1;exitY=0.5;exitDx=0;exitDy=0;entryX=0;entryY=0.5;entryDx=0;entryDy=0;" edge="1" parent="1" source="kXSDyCHVliUlZymCafyJ-5" target="kXSDyCHVliUlZymCafyJ-10">
          <mxGeometry relative="1" as="geometry" />
        </mxCell>
        <mxCell id="kXSDyCHVliUlZymCafyJ-5" value="SERVICII &amp;amp; PRODUSE" style="rounded=1;arcSize=10;whiteSpace=wrap;html=1;align=center;fillColor=#f5f5f5;strokeColor=#666666;fontColor=#333333;" vertex="1" parent="1">
          <mxGeometry x="179" y="250" width="100" height="40" as="geometry" />
        </mxCell>
        <mxCell id="kXSDyCHVliUlZymCafyJ-6" value="COLABORATORI/ FURNIZORI" style="rounded=1;arcSize=10;whiteSpace=wrap;html=1;align=center;fillColor=#f5f5f5;strokeColor=#666666;fontColor=#333333;" vertex="1" parent="1">
          <mxGeometry x="179" y="310" width="100" height="40" as="geometry" />
        </mxCell>
        <mxCell id="kXSDyCHVliUlZymCafyJ-7" value="GALERIE FOTO" style="rounded=1;arcSize=10;whiteSpace=wrap;html=1;align=center;fillColor=#f5f5f5;strokeColor=#666666;fontColor=#333333;" vertex="1" parent="1">
          <mxGeometry x="179" y="370" width="100" height="40" as="geometry" />
        </mxCell>
        <mxCell id="kXSDyCHVliUlZymCafyJ-8" value="CONTACT" style="rounded=1;arcSize=10;whiteSpace=wrap;html=1;align=center;fillColor=#f5f5f5;strokeColor=#666666;fontColor=#333333;" vertex="1" parent="1">
          <mxGeometry x="179" y="430" width="100" height="40" as="geometry" />
        </mxCell>
        <mxCell id="kXSDyCHVliUlZymCafyJ-9" value="Consultanță" style="rounded=1;arcSize=10;whiteSpace=wrap;html=1;align=center;fillColor=#f5f5f5;strokeColor=#666666;fontColor=#333333;" vertex="1" parent="1">
          <mxGeometry x="359" y="170" width="100" height="40" as="geometry" />
        </mxCell>
        <mxCell id="kXSDyCHVliUlZymCafyJ-56" style="edgeStyle=orthogonalEdgeStyle;rounded=0;orthogonalLoop=1;jettySize=auto;html=1;exitX=1;exitY=0.5;exitDx=0;exitDy=0;entryX=0;entryY=0.5;entryDx=0;entryDy=0;" edge="1" parent="1" source="kXSDyCHVliUlZymCafyJ-10" target="kXSDyCHVliUlZymCafyJ-55">
          <mxGeometry relative="1" as="geometry" />
        </mxCell>
        <mxCell id="kXSDyCHVliUlZymCafyJ-10" value="FNC" style="rounded=1;arcSize=10;whiteSpace=wrap;html=1;align=center;fillColor=#f5f5f5;strokeColor=#666666;fontColor=#333333;" vertex="1" parent="1">
          <mxGeometry x="359" y="220" width="100" height="40" as="geometry" />
        </mxCell>
        <mxCell id="kXSDyCHVliUlZymCafyJ-54" style="edgeStyle=orthogonalEdgeStyle;rounded=0;orthogonalLoop=1;jettySize=auto;html=1;exitX=1;exitY=0.5;exitDx=0;exitDy=0;entryX=1;entryY=0.5;entryDx=0;entryDy=0;" edge="1" parent="1" source="kXSDyCHVliUlZymCafyJ-11" target="kXSDyCHVliUlZymCafyJ-8">
          <mxGeometry relative="1" as="geometry" />
        </mxCell>
        <mxCell id="kXSDyCHVliUlZymCafyJ-11" value="Arendare" style="rounded=1;arcSize=10;whiteSpace=wrap;html=1;align=center;fillColor=#f5f5f5;strokeColor=#666666;fontColor=#333333;" vertex="1" parent="1">
          <mxGeometry x="359" y="270" width="100" height="40" as="geometry" />
        </mxCell>
        <mxCell id="kXSDyCHVliUlZymCafyJ-57" style="edgeStyle=orthogonalEdgeStyle;rounded=0;orthogonalLoop=1;jettySize=auto;html=1;exitX=1;exitY=0.5;exitDx=0;exitDy=0;entryX=0;entryY=0.5;entryDx=0;entryDy=0;" edge="1" parent="1" source="kXSDyCHVliUlZymCafyJ-13" target="kXSDyCHVliUlZymCafyJ-55">
          <mxGeometry relative="1" as="geometry" />
        </mxCell>
        <mxCell id="kXSDyCHVliUlZymCafyJ-13" value="Cereale" style="rounded=1;arcSize=10;whiteSpace=wrap;html=1;align=center;fillColor=#f5f5f5;strokeColor=#666666;fontColor=#333333;" vertex="1" parent="1">
          <mxGeometry x="359" y="320" width="100" height="40" as="geometry" />
        </mxCell>
        <mxCell id="kXSDyCHVliUlZymCafyJ-60" style="edgeStyle=orthogonalEdgeStyle;rounded=0;orthogonalLoop=1;jettySize=auto;html=1;exitX=0.5;exitY=1;exitDx=0;exitDy=0;entryX=1;entryY=0.5;entryDx=0;entryDy=0;" edge="1" parent="1" source="kXSDyCHVliUlZymCafyJ-55" target="kXSDyCHVliUlZymCafyJ-58">
          <mxGeometry relative="1" as="geometry" />
        </mxCell>
        <mxCell id="kXSDyCHVliUlZymCafyJ-55" value="Produse" style="rounded=1;arcSize=10;whiteSpace=wrap;html=1;align=center;fillColor=#f5f5f5;strokeColor=#666666;fontColor=#333333;" vertex="1" parent="1">
          <mxGeometry x="569" y="260" width="100" height="40" as="geometry" />
        </mxCell>
        <mxCell id="kXSDyCHVliUlZymCafyJ-62" style="edgeStyle=orthogonalEdgeStyle;rounded=0;orthogonalLoop=1;jettySize=auto;html=1;exitX=0.5;exitY=1;exitDx=0;exitDy=0;" edge="1" parent="1" source="kXSDyCHVliUlZymCafyJ-58" target="kXSDyCHVliUlZymCafyJ-61">
          <mxGeometry relative="1" as="geometry" />
        </mxCell>
        <mxCell id="kXSDyCHVliUlZymCafyJ-58" value="COȘ DE CUMPĂRĂTURI" style="rounded=1;arcSize=10;whiteSpace=wrap;html=1;align=center;fillColor=#f5f5f5;strokeColor=#666666;fontColor=#333333;" vertex="1" parent="1">
          <mxGeometry x="179" y="490" width="100" height="40" as="geometry" />
        </mxCell>
        <mxCell id="kXSDyCHVliUlZymCafyJ-61" value="Plată produse" style="rounded=1;arcSize=10;whiteSpace=wrap;html=1;align=center;fillColor=#f5f5f5;strokeColor=#666666;fontColor=#333333;" vertex="1" parent="1">
          <mxGeometry x="179" y="560" width="100" height="40" as="geometry" />
        </mxCell>
        <mxCell id="kXSDyCHVliUlZymCafyJ-64" value="BLOG" style="rounded=1;arcSize=10;whiteSpace=wrap;html=1;align=center;fillColor=#f5f5f5;strokeColor=#666666;fontColor=#333333;" vertex="1" parent="1">
          <mxGeometry x="179" y="10" width="100" height="40" as="geometry" />
        </mxCell>
        <mxCell id="kXSDyCHVliUlZymCafyJ-65" value="TESTIMONIALE" style="rounded=1;arcSize=10;whiteSpace=wrap;html=1;align=center;fillColor=#f5f5f5;strokeColor=#666666;fontColor=#333333;" vertex="1" parent="1">
          <mxGeometry x="179" y="70" width="100" height="40" as="geometry" />
        </mxCell>
        <mxCell id="kXSDyCHVliUlZymCafyJ-66" value="FAQ" style="rounded=1;arcSize=10;whiteSpace=wrap;html=1;align=center;fillColor=#f5f5f5;strokeColor=#666666;fontColor=#333333;" vertex="1" parent="1">
          <mxGeometry x="179" y="130" width="100" height="40" as="geometry" />
        </mxCell>
      </root>
    </mxGraphModel>
  </diagram>
</mxfile>
